<?xml version="1.0" encoding="utf-8"?>
<!-- Generator: Adobe Illustrator 18.1.0, SVG Export Plug-In . SVG Version: 6.00 Build 0)  -->
<svg version="1.1" id="Layer_1" xmlns="http://www.w3.org/2000/svg" xmlns:xlink="http://www.w3.org/1999/xlink" x="0px" y="0px"
	 viewBox="0 0 300 300" enable-background="new 0 0 300 300" xml:space="preserve">
<g>
	<path fill="#76A535" d="M107.4,54.2c0,0-133.1,90.5-28.1,194.2c0,0,68.6,64.9,154,2.3c0,0,10.4-7.3,2.2-14.3c0,0-2.3-3.5-7.9,4.7
		c0,0-12.6,19.3-46.9,10c0,0-11.7-4.4,4.1-8.2c0,0,15.5-7,12.9-18.5c0,0-0.3-5.9-8.8,0.6c0,0-7.3,6.2-22.6,5.3l-13.5-0.9
		c0,0-7-1.8-14.1,2.6c0,0-2.4,4.7-11.8-1.2c0,0-61.3-26.3-58.6-87.4c0,0-7.6-36.4,42.8-78.6C111.2,65,114.7,57.6,107.4,54.2z"/>
	<path fill="#FFA601" d="M49.1,58c0,0-7.6-17,3.5-20.5c0,0,8.2-7.6,19.9,10.3c0,0,36.9,86.5,79.7,83c0,0,20.5,4.7,47.5-19.9
		c0,0,34.6-38.5,38.9-30.9c0,0,16.2,15.7-34.8,93.1c0,0-19.9,36.4-34.6,37.5c0,0-68.7,10.6-85-53.9C84.3,156.5,66.1,94.3,49.1,58z"
		/>
	<circle fill="#FFA601" cx="155.6" cy="64.2" r="41.4"/>
</g>
</svg>
